<svg width="24" height="24" viewBox="0 0 24 24" fill="none" xmlns="http://www.w3.org/2000/svg">
<path fill-rule="evenodd" clip-rule="evenodd" d="M14 17.2525L16.3334 19.5858L21 14.9191L22.4142 16.3333L16.3334 22.4142L12.5858 18.6667L14 17.2525Z" fill="#2979FF"/>
<path fill-rule="evenodd" clip-rule="evenodd" d="M6 9C6 6.23858 8.23858 4 11 4C13.1755 4 15.0289 5.38991 15.7157 7.33325C15.8995 7.85326 16 8.41382 16 9C16 11.7614 13.7614 14 11 14C9.71877 14 8.55217 13.5194 7.66691 12.7271C6.6424 11.8101 6 10.4807 6 9ZM11 2C7.13401 2 4 5.13401 4 9C4 10.7926 4.67479 12.4286 5.78216 13.6663C3.4942 15.297 2 17.9734 2 21.0001V22.0001H11.5V20.0001H4.07088C4.37433 17.8782 5.62931 16.0623 7.3925 14.9998C8.44608 15.6345 9.681 16 11 16C14.866 16 18 12.866 18 9C18 8.18364 17.8598 7.39785 17.6014 6.66675C16.641 3.94932 14.0494 2 11 2Z" fill="#2979FF"/>
</svg>
