<svg width="24" height="24" viewBox="0 0 24 24" fill="none" xmlns="http://www.w3.org/2000/svg">
<path fill-rule="evenodd" clip-rule="evenodd" d="M16 9C16 11.2091 14.2091 13 12 13C9.79086 13 8 11.2091 8 9C8 6.79086 9.79086 5 12 5C14.2091 5 16 6.79086 16 9ZM13.7666 14.7357C13.2081 14.9075 12.6148 15 12 15C11.3852 15 10.7919 14.9075 10.2334 14.7357C7.99915 15.6838 6.33826 17.4318 5.87813 19.25H18.1219C17.6617 17.4318 16.0009 15.6838 13.7666 14.7357ZM15.8833 13.574C17.1783 12.4734 18 10.8327 18 9C18 5.68629 15.3137 3 12 3C8.68629 3 6 5.68629 6 9C6 10.8327 6.82165 12.4734 8.11668 13.574C5.65548 15.0445 3.75 17.4848 3.75 20.25V21.25H4.75H19.25H20.25V20.25C20.25 17.4848 18.3445 15.0445 15.8833 13.574Z" fill="#2979FF"/>
</svg>
