<svg width="24" height="24" viewBox="0 0 24 24" fill="none" xmlns="http://www.w3.org/2000/svg">
<path fill-rule="evenodd" clip-rule="evenodd" d="M11.1877 2.26671C11.7049 2.03687 12.2951 2.03687 12.8123 2.26671L21.4061 6.0862C21.7673 6.2467 22 6.60482 22 7.00001V15.5C22 15.8632 21.8031 16.1978 21.4856 16.3742L12.4856 21.3742C12.1836 21.542 11.8164 21.542 11.5144 21.3742L2.51436 16.3742C2.19689 16.1978 2 15.8632 2 15.5V7.00001C2 6.60482 2.23273 6.2467 2.59386 6.0862L11.1877 2.26671ZM14.0378 5.00001L12 4.09433L5.46221 7.00001L7.5 7.90569L14.0378 5.00001ZM16.5 6.09433L9.96221 9.00001L12 9.90569L18.5378 7.00001L16.5 6.09433ZM20 8.53877L13 11.6499V18.8005L20 14.9116V8.53877ZM11 18.8005V11.6499L4 8.53877V14.9116L11 18.8005Z" fill="#2979FF"/>
</svg>
